name C:\Users\r0593348\3dpredictsim\Results\Batchsim_tmt_linear\Pog_s1_tmt_aCst_d05_k250_ig24_pas.mot
datacolumns 128
datarows 4
range 1.68087483 1.71449233
endheader
time	pelvis_tilt	pelvis_list	pelvis_rotation	pelvis_tx	pelvis_ty	pelvis_tz	hip_flexion_l	hip_adduction_l	hip_rotation_l	hip_flexion_r	hip_adduction_r	hip_rotation_r	knee_angle_l	knee_angle_r	ankle_angle_l	ankle_angle_r	subtalar_angle_l	subtalar_angle_r	tmt_angle_l	tmt_angle_r	mtp_angle_l	mtp_angle_r	lumbar_extension	lumbar_bending	lumbar_rotation	arm_flex_l	arm_add_l	arm_rot_l	arm_flex_r	arm_add_r	arm_rot_r	elbow_flex_l	elbow_flex_r	pro_sup_l	pro_sup_r	glut_med1_l/activation	glut_med2_l/activation	glut_med3_l/activation	glut_min1_l/activation	glut_min2_l/activation	glut_min3_l/activation	semimem_l/activation	semiten_l/activation	bifemlh_l/activation	bifemsh_l/activation	sar_l/activation	add_long_l/activation	add_brev_l/activation	add_mag1_l/activation	add_mag2_l/activation	add_mag3_l/activation	tfl_l/activation	pect_l/activation	grac_l/activation	glut_max1_l/activation	glut_max2_l/activation	glut_max3_l/activation	iliacus_l/activation	psoas_l/activation	quad_fem_l/activation	gem_l/activation	peri_l/activation	rect_fem_l/activation	vas_med_l/activation	vas_int_l/activation	vas_lat_l/activation	med_gas_l/activation	lat_gas_l/activation	soleus_l/activation	tib_post_l/activation	flex_dig_l/activation	flex_hal_l/activation	tib_ant_l/activation	per_brev_l/activation	per_long_l/activation	per_tert_l/activation	ext_dig_l/activation	ext_hal_l/activation	ercspn_l/activation	intobl_l/activation	extobl_l/activation	glut_med1_r/activation	glut_med2_r/activation	glut_med3_r/activation	glut_min1_r/activation	glut_min2_r/activation	glut_min3_r/activation	semimem_r/activation	semiten_r/activation	bifemlh_r/activation	bifemsh_r/activation	sar_r/activation	add_long_r/activation	add_brev_r/activation	add_mag1_r/activation	add_mag2_r/activation	add_mag3_r/activation	tfl_r/activation	pect_r/activation	grac_r/activation	glut_max1_r/activation	glut_max2_r/activation	glut_max3_r/activation	iliacus_r/activation	psoas_r/activation	quad_fem_r/activation	gem_r/activation	peri_r/activation	rect_fem_r/activation	vas_med_r/activation	vas_int_r/activation	vas_lat_r/activation	med_gas_r/activation	lat_gas_r/activation	soleus_r/activation	tib_post_r/activation	flex_dig_r/activation	flex_hal_r/activation	tib_ant_r/activation	per_brev_r/activation	per_long_r/activation	per_tert_r/activation	ext_dig_r/activation	ext_hal_r/activation	ercspn_r/activation	intobl_r/activation	extobl_r/activation	
          1.68087483	         -2.91889445	          2.54798348	         -6.72860774	          2.10109354	          0.85441652	          0.00355488	         32.24763932	          3.46209856	         -2.37589890	        -17.92881344	         -2.45565010	          8.62403865	        -16.33323702	        -10.58285962	          6.09657246	         -1.45624358	         -3.05192847	         13.29474322	          0.13139738	          3.88710226	         -0.08749627	         21.57073255	         -2.09101348	         -1.25935857	          2.02768117	        -11.74445229	        -13.64320533	          6.30048996	          7.73834955	        -13.49473452	         17.57260535	         15.13990490	         43.57740021	         86.51662706	         86.51662706	          0.05933817	          0.05933816	          0.05000006	          0.05933827	          0.05933824	          0.05879508	          0.05000313	          0.05000159	          0.25396167	          0.05000015	          0.05000025	          0.11770526	          0.29247548	          0.12932153	          0.22168717	          0.13143539	          0.05000011	          0.08356597	          0.09900359	          0.05000015	          0.05000015	          0.05103893	          0.05957277	          0.06273719	          0.52870901	          0.19954362	          0.12919336	          0.06682329	          0.21501403	          0.21612181	          0.18305721	          0.05212723	          0.06151256	          0.05897036	          0.05000001	          0.05000038	          0.05000039	          0.64348093	          0.36436959	          0.20093122	          0.42023441	          0.61893264	          0.37679588	          0.05657041	          0.08266534	          0.08357239	          0.25041341	          0.08704893	          0.05000004	          0.29976643	          0.19728730	          0.09316017	          0.05000125	          0.05000015	          0.05000013	          0.06956941	          0.09917740	          0.11875573	          0.21492241	          0.05123427	          0.05000221	          0.05000033	          0.28025597	          0.07720150	          0.05000289	          0.05000072	          0.05000047	          0.05000040	          0.32070742	          0.51738791	          0.05000013	          0.05000052	          0.05000325	          0.17791851	          0.05000641	          0.10812009	          0.13963130	          0.26570858	          0.35586319	          0.24336369	          0.21839004	          0.25953107	          0.31132569	          0.05000000	          0.06933967	          0.14569634	          0.05000005	          0.05000001	          0.05000005	          0.05332161	          0.05692560	          0.05933826	
          1.69208066	         -2.90453741	          2.67697343	         -6.94821045	          2.11856894	          0.85319427	          0.00329944	         31.51720710	          3.92319312	         -2.14318702	        -17.48849466	         -2.76303937	          8.37816927	        -16.56822382	        -13.11152674	          5.40376370	         -2.60611376	         -3.57941798	         14.41689571	          0.13002184	          3.65655453	         -0.07293243	         22.70086209	         -1.85616339	         -1.53480294	          2.12117012	        -12.92030148	        -13.63589236	          6.15772290	          7.38141644	        -13.53019539	         17.71223175	         15.09565058	         44.83109186	         86.51662706	         86.51662706	          0.05000001	          0.05000004	          0.13706663	          0.05000008	          0.05000007	          0.05000006	          0.05000003	          0.05000006	          0.21399515	          0.05000004	          0.05000147	          0.09918176	          0.24644804	          0.34008473	          0.25551301	          0.13593594	          0.05000046	          0.07042222	          0.08342400	          0.10075705	          0.12474326	          0.13540576	          0.05019770	          0.05286449	          0.48498788	          0.16814101	          0.10886195	          0.05933838	          0.27151803	          0.28276035	          0.23248583	          0.05000009	          0.05933778	          0.05000004	          0.05933817	          0.07042001	          0.05933977	          0.57788731	          0.44548744	          0.23265210	          0.35410153	          0.60490624	          0.31749867	          0.05000001	          0.06965611	          0.07042041	          0.21100529	          0.07334985	          0.05933820	          0.25259154	          0.16623977	          0.07849936	          0.06510616	          0.05000014	          0.05000028	          0.05862112	          0.08356972	          0.20828186	          0.30030266	          0.22772110	          0.05962858	          0.12467802	          0.23615151	          0.06505237	          0.05000059	          0.05933803	          0.05933836	          0.05933847	          0.27023695	          0.46344241	          0.05933824	          0.05933835	          0.05000101	          0.14991906	          0.11770380	          0.11770391	          0.11765747	          0.22389339	          0.29986015	          0.20506497	          0.18402150	          0.21868812	          0.26233167	          0.05075745	          0.05842755	          0.12276779	          0.05000006	          0.05000050	          0.05000025	          0.07981664	          0.05933831	          0.05000010	
          1.70328649	         -2.88572236	          2.80168174	         -7.13038444	          2.13621195	          0.85185865	          0.00305748	         30.56203114	          4.30389766	         -1.85762528	        -16.93702394	         -3.03850751	          8.11934658	        -16.90005634	        -15.81303926	          4.97243278	         -3.82693453	         -4.14681941	         15.43211241	         -0.13207137	          3.24086791	         -0.19006933	         23.54850181	         -1.60944899	         -1.80791118	          2.20364734	        -14.04373246	        -13.63480371	          6.10645659	          6.94916691	        -13.56859846	         17.77683202	         14.99783159	         46.04313058	         86.51662706	         86.51662706	          0.29820148	          0.32881076	          0.41164275	          0.40674785	          0.21547158	          0.23678752	          0.09069021	          0.12738054	          0.18031829	          0.08350024	          0.05000052	          0.08357332	          0.20766396	          0.28656489	          0.21530286	          0.16192685	          0.05000012	          0.05934117	          0.12607094	          0.23528352	          0.19069819	          0.13079944	          0.05000022	          0.05000012	          0.40866423	          0.14168037	          0.28705850	          0.05000017	          0.22878868	          0.23826240	          0.19589908	          0.05000005	          0.05000005	          0.05000002	          0.05000000	          0.05933788	          0.05000137	          0.62575499	          0.40527830	          0.19603913	          0.63029305	          0.69808006	          0.38329671	          0.07040848	          0.08184684	          0.05933819	          0.28347601	          0.06180663	          0.05000003	          0.32058031	          0.14007827	          0.06614576	          0.09125621	          0.05000008	          0.05000007	          0.05000008	          0.07041989	          0.17950917	          0.25304423	          0.19188416	          0.05024491	          0.10505723	          0.22403939	          0.11146061	          0.05000022	          0.05000062	          0.05000044	          0.05000036	          0.22770917	          0.42435292	          0.05000007	          0.05000029	          0.05000005	          0.12632594	          0.09918048	          0.09918058	          0.09914145	          0.18865875	          0.25267045	          0.17279341	          0.15506161	          0.18427272	          0.22104796	          0.17229773	          0.14674921	          0.15380647	          0.30678766	          0.21131603	          0.13519189	          0.10116945	          0.05000010	          0.05000003	
          1.71449233	         -2.86480611	          2.91401380	         -7.26923747	          2.15371933	          0.85046677	          0.00277995	         29.54146611	          4.66626066	         -1.57454835	        -16.24484630	         -3.27422731	          7.85263674	        -17.17748106	        -18.69580748	          4.65820105	         -4.81189324	         -4.74397543	         16.32010713	         -0.05427078	          2.44752266	         -0.20132915	         23.62879074	         -1.38010181	         -2.06880692	          2.27563278	        -15.04941424	        -13.63558295	          6.15018686	          6.50024636	        -13.61469195	         17.79910088	         14.81564130	         47.16826808	         86.51662706	         86.51662706	          0.44029088	          0.53018829	          0.61964309	          0.34273763	          0.38717035	          0.50020519	          0.07641828	          0.11697469	          0.15194119	          0.07035967	          0.05000022	          0.07042121	          0.17498342	          0.24146764	          0.20143274	          0.18256335	          0.05000014	          0.05000357	          0.10623109	          0.34159185	          0.25412489	          0.18718376	          0.05000004	          0.05000004	          0.34435181	          0.11938389	          0.28199343	          0.05000001	          0.31114122	          0.33116603	          0.26681617	          0.05000000	          0.05000002	          0.05000000	          0.05000041	          0.05000036	          0.05000020	          0.78578525	          0.34149870	          0.16518799	          0.53110252	          0.67331452	          0.54740107	          0.10093014	          0.06896642	          0.05000003	          0.23886475	          0.05208001	          0.05000008	          0.27012989	          0.11803387	          0.05573632	          0.12159782	          0.05008092	          0.05246060	          0.05000028	          0.05933807	          0.19565607	          0.22954603	          0.16168920	          0.05000393	          0.09409004	          0.18878235	          0.09392001	          0.05004813	          0.05000171	          0.05000108	          0.05000065	          0.19187405	          0.35827029	          0.05000016	          0.05000073	          0.05000017	          0.10644573	          0.08357223	          0.08357231	          0.08353933	          0.15896907	          0.21290711	          0.14560050	          0.13065923	          0.15527338	          0.18626118	          0.21947313	          0.13818866	          0.12960170	          0.25850820	          0.25482464	          0.14154487	          0.13052858	          0.05000001	          0.05000002	
